<svg width="50" height="50" viewBox="0 0 50 50" fill="none" xmlns="http://www.w3.org/2000/svg">
  <path d="M25 2C12.85 2 3 11.85 3 24C3 36.15 12.85 46 25 46C37.15 46 47 36.15 47 24C47 11.85 37.15 2 25 2ZM25 42C15.05 42 7 33.95 7 24C7 14.05 15.05 6 25 6C34.95 6 43 14.05 43 24C43 33.95 34.95 42 25 42Z" fill="#8B0000"/>
  <path d="M35 24C35 29.5228 30.5228 34 25 34C19.4772 34 15 29.5228 15 24C15 18.4772 19.4772 14 25 14C30.5228 14 35 18.4772 35 24Z" fill="#8B0000" fill-opacity="0.3"/>
  <path d="M25 16L27.5 21.5L33.5 22.3L29.25 26.55L30.5 32.5L25 29.5L19.5 32.5L20.75 26.55L16.5 22.3L22.5 21.5L25 16Z" fill="#8B0000"/>
</svg> 