<svg width="50" height="50" viewBox="0 0 50 50" fill="none" xmlns="http://www.w3.org/2000/svg">
  <path d="M40 20.5H37V15.5C37 14.4 36.1 13.5 35 13.5H30V10.5C30 9.4 29.1 8.5 28 8.5H10C8.9 8.5 8 9.4 8 10.5V28.5C8 29.6 8.9 30.5 10 30.5H13V35.5C13 36.6 13.9 37.5 15 37.5H20V40.5C20 41.6 20.9 42.5 22 42.5H40C41.1 42.5 42 41.6 42 40.5V22.5C42 21.4 41.1 20.5 40 20.5ZM13 26.5H12V12.5H26V13.5H15C13.9 13.5 13 14.4 13 15.5V26.5ZM20 33.5H17V17.5H33V20.5H22C20.9 20.5 20 21.4 20 22.5V33.5ZM38 38.5H24V24.5H38V38.5Z" fill="#8B0000"/>
  <path d="M31 28.5C29.9 28.5 29 29.4 29 30.5C29 31.6 29.9 32.5 31 32.5C32.1 32.5 33 31.6 33 30.5C33 29.4 32.1 28.5 31 28.5Z" fill="#8B0000"/>
</svg> 